<svg version="1.1" xmlns="http://www.w3.org/2000/svg" xmlns:xlink="http://www.w3.org/1999/xlink" width="21.25039" height="21.22859" viewBox="0,0,21.25039,21.22859"><defs><linearGradient x1="240" y1="177.83608" x2="240" y2="186.77114" gradientUnits="userSpaceOnUse" id="color-1"><stop offset="0" stop-color="#79cbff"/><stop offset="1" stop-color="#00a9ff"/></linearGradient><linearGradient x1="239.97875" y1="173.22886" x2="239.97875" y2="177.4515" gradientUnits="userSpaceOnUse" id="color-2"><stop offset="0" stop-color="#b3edff"/><stop offset="1" stop-color="#7bccff"/></linearGradient></defs><g transform="translate(-229.3748,-169.3857)"><g data-paper-data="{&quot;isPaintingLayer&quot;:true}" fill-rule="nonzero" stroke-linejoin="miter" stroke-miterlimit="10" stroke-dasharray="" stroke-dashoffset="0" style="mix-blend-mode: normal"><path d="M245.37519,176.7868c0,2.1511 0,5.24331 0,6.45329c0,1.29066 -0.71819,2.1242 -1.79548,2.1242c-2.22189,0 -5.9026,0 -7.15943,0c-1.12217,0 -1.79548,-0.77977 -1.79548,-2.09731c0,-0.05378 0,-6.50708 0,-6.50708c0,-1.31754 0.6733,-2.1242 1.77302,-2.1242c2.22189,0 5.92505,0 7.18188,0c1.07729,0 1.79547,0.83355 1.79547,2.15109z" fill="#f7f7f7" stroke="#e6faff" stroke-width="10.5" stroke-linecap="butt"/><path d="M245.36327,179.62757c0,1.79149 0,4.36676 0,5.37447c0,1.07489 -0.7166,1.7691 -1.79149,1.7691c-2.21697,0 -5.88952,0 -7.14357,0c-1.11968,0 -1.79149,-0.64942 -1.79149,-1.7467c0,-0.04479 0,-5.41926 0,-5.41926c0,-1.09729 0.67181,-1.7691 1.7691,-1.7691c2.21697,0 5.91192,0 7.16596,0c1.07489,0 1.79149,0.6942 1.79149,1.79149zM242.29662,182.31481c0,-1.07489 -1.23291,-2.30781 -2.30781,-2.30781c-1.07489,0 -2.30781,1.23291 -2.30781,2.30781c0,1.07489 1.23292,2.30781 2.30781,2.30781c1.07489,0 2.30781,-1.23292 2.30781,-2.30781z" fill="url(#color-1)" stroke="none" stroke-width="0" stroke-linecap="butt"/><path d="M237.08713,177.4515c0,0 -0.26942,-4.21574 2.90773,-4.22263c3.17833,0.00994 2.87327,4.1434 2.87327,4.1434" fill="none" stroke="url(#color-2)" stroke-width="2" stroke-linecap="round"/></g></g></svg>