<svg version="1.1" xmlns="http://www.w3.org/2000/svg" xmlns:xlink="http://www.w3.org/1999/xlink" width="102.40924" height="99.06807" viewBox="0,0,102.40924,99.06807"><g transform="translate(-218.79538,-130.46597)"><g data-paper-data="{&quot;isPaintingLayer&quot;:true}" fill-rule="nonzero" stroke="none" stroke-linecap="butt" stroke-linejoin="miter" stroke-miterlimit="10" stroke-dasharray="" stroke-dashoffset="0" style="mix-blend-mode: normal"><path d="M304.73551,180c0,18.55801 -15.55162,33.60224 -34.73551,33.60224c-19.18389,0 -34.73551,-15.04423 -34.73551,-33.60224c0,-18.55801 15.55162,-33.60224 34.73551,-33.60224c19.18389,0 34.73551,15.04423 34.73551,33.60224z" fill="#ffffff" stroke-width="0"/><text transform="translate(260.2258,189.85749) scale(0.85439,0.85439)" font-size="40" xml:space="preserve" fill="#000000" fill-rule="nonzero" stroke="none" stroke-width="1" stroke-linecap="butt" stroke-linejoin="miter" stroke-miterlimit="10" stroke-dasharray="" stroke-dashoffset="0" font-family="Sans Serif" font-weight="normal" text-anchor="start" style="mix-blend-mode: normal"><tspan x="0" dy="0">1</tspan></text><path d="M320.86176,180c0,27.17372 -22.77159,49.20236 -50.86176,49.20236c-28.09017,0 -50.86175,-22.02864 -50.86175,-49.20236c0,-27.17372 22.77158,-49.20236 50.86175,-49.20236c28.09017,0 50.86176,22.02864 50.86176,49.20236z" fill="none" stroke-width="0"/><path d="M321.20462,180c0,27.3569 -22.9251,49.53403 -51.20462,49.53403c-28.27953,0 -51.20462,-22.17714 -51.20462,-49.53403c0,-27.3569 22.9251,-49.53403 51.20462,-49.53403c28.27953,0 51.20462,22.17714 51.20462,49.53403z" fill-opacity="0.01176" fill="#ffffff" stroke-width="0"/></g></g></svg>