<svg version="1.1" xmlns="http://www.w3.org/2000/svg" xmlns:xlink="http://www.w3.org/1999/xlink" width="24.87537" height="34.39789" viewBox="0,0,24.87537,34.39789"><defs><linearGradient x1="240.00002" y1="176.47759" x2="240.00002" y2="183.52242" gradientUnits="userSpaceOnUse" id="color-1"><stop offset="0" stop-color="#ecf9ff"/><stop offset="1" stop-color="#35a7ff"/></linearGradient><linearGradient x1="240.00002" y1="171.89027" x2="240.00002" y2="188.10974" gradientUnits="userSpaceOnUse" id="color-2"><stop offset="0" stop-color="#c7efff"/><stop offset="1" stop-color="#67a7ff"/></linearGradient></defs><g transform="translate(-227.56235,-167.57686)"><g data-paper-data="{&quot;isPaintingLayer&quot;:true}" fill-rule="nonzero" stroke-linecap="butt" stroke-linejoin="miter" stroke-miterlimit="10" stroke-dasharray="" stroke-dashoffset="0" style="mix-blend-mode: normal"><path d="M247.18773,175.70331c0,2.87645 0,7.01134 0,8.62934c0,1.72587 -0.96035,2.84049 -2.4009,2.84049c-2.97112,0 -7.89294,0 -9.57357,0c-1.50056,0 -2.4009,-1.04271 -2.4009,-2.80453c0,-0.0719 0,-8.70125 0,-8.70125c0,-1.76182 0.90034,-2.84049 2.37088,-2.84049c2.97112,0 7.92296,0 9.60358,0c1.44055,0 2.4009,1.11462 2.4009,2.87643z" fill="#f7f7f7" stroke="#e6faff" stroke-width="10.5"/><path d="M236.4776,180.00001c0,-1.94538 1.57703,-3.52241 3.52241,-3.52241c1.94538,0 3.52241,1.57703 3.52241,3.52241c0,1.94538 -1.57703,3.52241 -3.52241,3.52241c-1.94538,0 -3.52241,-1.57703 -3.52241,-3.52241z" fill="url(#color-1)" stroke="none" stroke-width="0"/><path d="M231.89028,180.00001c0,-4.47888 3.63085,-8.10973 8.10973,-8.10973c4.47888,0 8.10973,3.63085 8.10973,8.10973c0,4.47888 -3.63085,8.10973 -8.10973,8.10973c-4.47888,0 -8.10973,-3.63085 -8.10973,-8.10973z" fill="none" stroke="url(#color-2)" stroke-width="2"/><text transform="translate(227.84855,200.08233) scale(0.49234,0.49234)" font-size="12" xml:space="preserve" fill="#ffffff" fill-rule="nonzero" stroke="none" stroke-width="1" stroke-linecap="butt" stroke-linejoin="miter" stroke-miterlimit="10" stroke-dasharray="" stroke-dashoffset="0" font-family="HarmonyOS_Sans_SC, &quot;HarmonyOS Sans SC&quot;" font-weight="400" text-anchor="start" style="mix-blend-mode: normal"><tspan x="0" dy="0">专注模式</tspan></text><text transform="translate(205.7,132.96713) scale(0.5,0.5)" font-size="40" xml:space="preserve" fill="#ffffff" fill-rule="nonzero" stroke="none" stroke-width="1" stroke-linecap="butt" stroke-linejoin="miter" stroke-miterlimit="10" stroke-dasharray="" stroke-dashoffset="0" font-family="HarmonyOS_Sans_SC, &quot;HarmonyOS Sans SC&quot;" font-weight="normal" text-anchor="start" style="mix-blend-mode: normal"><tspan x="0" dy="0"> </tspan></text></g></g></svg>