<svg version="1.1" xmlns="http://www.w3.org/2000/svg" xmlns:xlink="http://www.w3.org/1999/xlink" width="296.164" height="237.15012" viewBox="0,0,296.164,237.15012"><g transform="translate(-171.42245,-82.11661)"><g data-paper-data="{&quot;isPaintingLayer&quot;:true}" fill="#000000" stroke="none" stroke-width="1" stroke-linecap="butt" stroke-linejoin="miter" stroke-miterlimit="10" stroke-dasharray="" stroke-dashoffset="0" style="mix-blend-mode: normal"><path d="M282.98519,104.40091c1.29545,1.46266 2.94609,2.85217 4.95191,4.16853l-1.88044,3.25945c-1.88147,-1.38458 -3.60518,-2.97161 -5.14011,-4.73257c-1.4419,1.58784 -3.31196,3.1758 -5.61017,4.76394l-2.25662,-3.00875c2.40255,-1.54623 4.31438,-3.10288 5.73552,-4.66995c-1.48343,-2.42368 -2.56995,-5.15042 -3.25957,-8.18022c-0.0416,3.2387 -0.32886,5.92365 -0.8618,8.05487c-0.53294,2.13123 -1.50978,4.48186 -2.93055,7.05192l-2.31924,-2.4447v2.60131h-3.47902v-10.28012h-1.94317c-0.10478,2.36102 -0.33984,4.35647 -0.70519,5.98635c-0.39463,1.70852 -0.99998,3.3614 -1.80213,4.92066l-3.16548,-2.0375c0.6368,-1.18425 1.14134,-2.43499 1.50449,-3.72962c0.33986,-1.34007 0.54976,-2.70976 0.62678,-4.09011c0.10448,-1.55653 0.15672,-3.75568 0.15672,-6.59744v-12.00373h3.44766v7.77257h2.09989v-8.33672h3.44754v8.33672h1.44175v3.35378h-6.98918v2.85191h5.35946v10.31171c1.08649,-2.06856 1.823,-4.09011 2.20956,-6.06465c0.38656,-1.97454 0.57984,-4.5916 0.57984,-7.85121v-8.93236c4.15767,-0.20873 8.82762,-0.86692 14.00985,-1.97454l0.68951,3.79235c-3.32249,0.73167 -7.10443,1.32716 -11.3458,1.78645v2.60143h11.18908v3.63563c-0.41998,1.82335 -0.95385,3.61859 -1.59847,5.37515c-0.56211,1.5108 -1.28723,2.95582 -2.16251,4.30946zM278.37784,94.59073c0.64772,2.69567 1.47308,4.93138 2.47607,6.70711c1.02346,-1.77604 1.80698,-4.01173 2.35059,-6.70711zM317.712,91.01772h-9.05771c1.27976,2.51317 2.82425,4.88247 4.60721,7.0676c1.71299,2.07902 3.81289,4.09011 6.29968,6.03328l-2.72667,3.44766c-1.57502,-1.46797 -3.05133,-3.03842 -4.41924,-4.70109v3.57278h-5.89225v5.26536h-4.01181v-5.26535h-5.86088v-3.60438h5.86088v-9.46526c-1.17355,2.56079 -2.5849,5.00576 -4.21547,7.30274c-1.61935,2.27776 -3.68268,4.64927 -6.19,7.11454l-2.63268,-3.29094c2.28441,-1.92578 4.37826,-4.06687 6.25262,-6.39366c1.75401,-2.20849 3.29163,-4.5805 4.59165,-7.08329h-8.96383v-3.76099h11.15771v-4.48176h4.01181v4.48176h11.18885v3.76099zM306.52302,93.52504v9.30854h5.86076c-2.31703,-2.8586 -4.28458,-5.98355 -5.86088,-9.30854zM349.4305,111.57819c-3.88664,-0.25042 -7.10458,-0.58473 -9.65379,-1.00296c-2.54922,-0.41822 -4.83706,-1.04503 -6.86349,-1.88044c-1.08731,0.66863 -2.44053,1.26934 -4.05965,1.80213c-1.91947,0.61139 -3.87052,1.11883 -5.84464,1.52006l-1.41038,-3.44754c3.28037,-0.71053 5.72503,-1.37917 7.33399,-2.00591c-1.1077,-0.71039 -2.30919,-1.6611 -3.60449,-2.85214l2.00568,-1.88054h-3.07125v-13.03838h9.71585v-1.81782h-11.43968v-3.41606h26.82867v3.41606h-11.53356v1.81804h9.7779v13.03793h-10.02839c-0.25161,1.65079 -0.80561,3.07163 -1.662,4.26252c1.60897,0.50149 3.55229,0.88806 5.82996,1.15968c2.27767,0.27162 5.10897,0.47013 8.4939,0.59551zM333.97835,93.90144v-1.97454h-5.9552v1.97454zM343.91423,93.90144v-1.97454h-6.08044v1.97454zM333.97835,96.69085h-5.9552v1.94317h5.9552v-0.31345zM337.83378,98.63402h6.08044v-1.94317h-6.08044v1.69246zM328.46205,101.83085c1.157,1.05825 2.42903,1.98341 3.79224,2.75814c0.68977,-0.71045 1.1599,-1.62984 1.41039,-2.75814zM367.67073,100.98462h-5.23422v7.17704c-0.00038,1.25393 -0.23017,2.11585 -0.6894,2.58575c-0.45921,0.4699 -1.30545,0.71543 -2.53869,0.73656c-0.8705,0.00513 -1.74005,-0.05775 -2.60074,-0.18808l-0.59575,-3.32219c-0.20873,0.50142 -0.53256,1.19092 -0.97147,2.06852l-2.88396,-1.34765c0.5847,-1.06922 1.10282,-2.17354 1.55142,-3.30662c0.47771,-1.18339 0.8909,-2.39182 1.23775,-3.61995l3.07238,0.84623c-0.55206,1.81357 -1.21141,3.59275 -1.97454,5.3281c0.66305,0.11 1.33306,0.17285 2.005,0.18808c0.39716,-0.00037 0.64802,-0.10485 0.75258,-0.31344c0.10456,-0.20858 0.15683,-0.64739 0.15683,-1.3164v-5.51619h-5.67313v-3.25956h5.67313v-2.3506h-6.1741v-3.22819h3.41652c-0.08387,-0.56408 -0.30351,-1.7655 -0.65892,-3.60426h-2.06819v-3.25957h5.32787l-0.56416,-1.34777l-0.43892,-1.06557l3.6354,-0.75225l0.84623,2.06852l0.43892,1.09706h4.92055v3.25979h-1.72292c-0.02144,0.14556 -0.05303,0.30728 -0.09478,0.48517c-0.04175,0.1779 -0.08349,0.39227 -0.12524,0.64314l-0.50097,2.47595h2.75759v3.2282h-5.51629v2.3506h5.23422zM381.68094,92.42833v3.57279h-2.63234v15.45171h-3.54176v-15.45171h-2.88396v0.03148c0,2.71636 -0.08349,4.92077 -0.25048,6.61324c-0.14497,1.58071 -0.46009,3.14117 -0.93989,4.65427c-0.45997,1.41024 -1.14974,2.94075 -2.06932,4.59154l-3.38493,-2.03728c0.70987,-1.00881 1.30908,-2.0911 1.78725,-3.22819l-2.82077,1.15967c-0.35541,-1.27416 -0.95116,-2.96662 -1.78724,-5.07738l2.88396,-1.00296l1.84929,4.66996c0.52422,-1.39553 0.85635,-2.85584 0.98728,-4.34083c0.15646,-1.59829 0.23468,-3.84967 0.23468,-6.75416v-10.09214c2.02453,-0.1906 4.03812,-0.48347 6.03306,-0.87749c2.01666,-0.39686 3.71438,-0.85657 5.09317,-1.37912l1.15991,3.54164c-1.32682,0.47243 -2.68241,0.85978 -4.05853,1.15967c-1.55728,0.36114 -3.13175,0.64359 -4.71745,0.84624v3.94907zM358.55063,88.54198l0.6894,3.60426h2.69552c0.25049,-0.96124 0.49081,-2.16267 0.72099,-3.60426z" fill-rule="evenodd"/><text transform="translate(233.97299,166.63899) scale(2.0562,2.0562)" font-size="12" xml:space="preserve" fill="#000000" fill-rule="nonzero" stroke="none" stroke-width="1" stroke-linecap="butt" stroke-linejoin="miter" stroke-miterlimit="10" stroke-dasharray="" stroke-dashoffset="0" font-family="HarmonyOS_Sans_SC, &quot;HarmonyOS Sans SC&quot;" font-weight="400" text-anchor="start" style="mix-blend-mode: normal"><tspan x="0" dy="0">已更新至3.0.2.1</tspan></text><text transform="translate(172.33736,233.2042) scale(1.82982,1.82982)" font-size="12" xml:space="preserve" fill="#000000" fill-rule="nonzero" stroke="none" stroke-width="1" stroke-linecap="butt" stroke-linejoin="miter" stroke-miterlimit="10" stroke-dasharray="" stroke-dashoffset="0" font-family="HarmonyOS_Sans_SC, &quot;HarmonyOS Sans SC&quot;" font-weight="400" text-anchor="start" style="mix-blend-mode: normal"><tspan x="0" dy="0">•新增“畅聊”应用接口</tspan><tspan x="0" dy="14.399999999999999px">•替换专注模式的Dock栏位置</tspan><tspan x="0" dy="14.399999999999999px">•Dock栏动画优化</tspan><tspan x="0" dy="14.399999999999999px">•修复数字键盘按键大小bug</tspan></text></g></g></svg>