<svg version="1.1" xmlns="http://www.w3.org/2000/svg" xmlns:xlink="http://www.w3.org/1999/xlink" width="31.58777" height="109.55474" viewBox="0,0,31.58777,109.55474"><defs><linearGradient x1="240.00001" y1="87.18909" x2="240.00001" y2="167.16483" gradientUnits="userSpaceOnUse" id="color-1"><stop offset="0" stop-color="#97b9ff"/><stop offset="1" stop-color="#3260ff"/></linearGradient><linearGradient x1="240.00001" y1="87.1891" x2="240.00001" y2="167.16484" gradientUnits="userSpaceOnUse" id="color-2"><stop offset="0" stop-color="#96bdff"/><stop offset="1" stop-color="#3361ff"/></linearGradient></defs><g transform="translate(-224.20611,-83.65007)"><g data-paper-data="{&quot;isPaintingLayer&quot;:true}" fill-rule="nonzero" stroke-linecap="butt" stroke-linejoin="miter" stroke-miterlimit="10" stroke-dasharray="" stroke-dashoffset="0" style="mix-blend-mode: normal"><path d="M253.80081,153.99642c0.20263,17.52893 -26.77842,17.57232 -26.98105,0.04339l-0.62055,-53.68231c-0.20263,-17.52893 26.77842,-17.57231 26.98105,-0.04338z" fill="url(#color-1)" stroke="url(#color-2)" stroke-width="3"/><text transform="translate(232.15001,186.95481) scale(0.5,0.5)" font-size="40" xml:space="preserve" fill="#3d88ff" fill-rule="nonzero" stroke="none" stroke-width="1" stroke-linecap="butt" stroke-linejoin="miter" stroke-miterlimit="10" stroke-dasharray="" stroke-dashoffset="0" font-family="Sans Serif" font-weight="normal" text-anchor="start" style="mix-blend-mode: normal"><tspan x="0" dy="0">Q</tspan></text><text transform="translate(233.74901,129.60692) scale(0.5,0.5)" font-size="40" xml:space="preserve" fill="#3d88ff" fill-rule="nonzero" stroke="none" stroke-width="1" stroke-linecap="butt" stroke-linejoin="miter" stroke-miterlimit="10" stroke-dasharray="" stroke-dashoffset="0" font-family="Sans Serif" font-weight="normal" text-anchor="start" style="mix-blend-mode: normal"><tspan x="0" dy="0">1</tspan></text><path d="M241.72922,136.19563c0,1.00856 -0.6797,1.82616 -1.51815,1.82616c-0.83845,0 -1.51815,-0.8176 -1.51815,-1.82616c0,-1.00856 0.6797,-1.82616 1.51815,-1.82616c0.83845,0 1.51815,0.8176 1.51815,1.82616z" fill="#3d88ff" stroke="none" stroke-width="0"/><path d="M224.20612,192.8377v-109.18763h31.58777v109.18763z" data-paper-data="{&quot;index&quot;:null}" fill-opacity="0.01176" fill="#ffffff" stroke="none" stroke-width="0"/></g></g></svg>