<svg version="1.1" xmlns="http://www.w3.org/2000/svg" xmlns:xlink="http://www.w3.org/1999/xlink" width="24.87537" height="69.28135" viewBox="0,0,24.87537,69.28135"><defs><linearGradient x1="316.02893" y1="186.65472" x2="316.02893" y2="181.1303" gradientUnits="userSpaceOnUse" id="color-1"><stop offset="0" stop-color="#44abfc"/><stop offset="1" stop-color="#40aaff"/></linearGradient><linearGradient x1="320" y1="184.5041" x2="320" y2="173.34502" gradientUnits="userSpaceOnUse" id="color-2"><stop offset="0" stop-color="#35a7ff"/><stop offset="1" stop-color="#dff5ff"/></linearGradient></defs><g transform="translate(-307.56236,-132.68829)"><g data-paper-data="{&quot;isPaintingLayer&quot;:true}" stroke-linecap="butt" stroke-linejoin="miter" stroke-miterlimit="10" stroke-dasharray="" stroke-dashoffset="0" style="mix-blend-mode: normal"><text transform="translate(313.63804,200.08234) scale(0.49234,0.49234)" font-size="12" xml:space="preserve" fill="#ffffff" fill-rule="nonzero" stroke="none" stroke-width="1" stroke-linecap="butt" stroke-linejoin="miter" stroke-miterlimit="10" stroke-dasharray="" stroke-dashoffset="0" font-family="HarmonyOS_Sans_SC, &quot;HarmonyOS Sans SC&quot;" font-weight="400" text-anchor="start" style="mix-blend-mode: normal"><tspan x="0" dy="0">畅聊</tspan></text><path d="M327.18773,175.70331c0,2.87645 0,7.01134 0,8.62934c0,1.72587 -0.96035,2.84049 -2.4009,2.84049c-2.97112,0 -7.89294,0 -9.57357,0c-1.50056,0 -2.4009,-1.04271 -2.4009,-2.80453c0,-0.0719 0,-8.70125 0,-8.70125c0,-1.76182 0.90034,-2.84049 2.37088,-2.84049c2.97112,0 7.92296,0 9.60358,0c1.44055,0 2.4009,1.11462 2.4009,2.87643z" fill="#e6faff" fill-rule="nonzero" stroke="#e6faff" stroke-width="10.5"/><text transform="translate(309.36798,153.93829) scale(0.5,0.5)" font-size="40" xml:space="preserve" fill="#ffffff" fill-rule="nonzero" stroke="none" stroke-width="1" stroke-linecap="butt" stroke-linejoin="miter" stroke-miterlimit="10" stroke-dasharray="" stroke-dashoffset="0" font-family="HarmonyOS_Sans_SC, &quot;HarmonyOS Sans SC&quot;" font-weight="normal" text-anchor="start" style="mix-blend-mode: normal"><tspan x="0" dy="0"> </tspan></text><path d="M314.4457,186.5627c-0.54764,0.31357 -1.18921,-0.22499 -0.97528,-0.81865l1.50078,-4.16515c0.07517,-0.20861 0.24752,-0.36731 0.46161,-0.42503c0.21409,-0.05772 0.44288,-0.00717 0.61271,0.13539l2.3412,1.96518c0.16985,0.14256 0.25928,0.35911 0.23954,0.57997c-0.01973,0.22086 -0.14615,0.41813 -0.33858,0.52831z" fill="url(#color-1)" fill-rule="evenodd" stroke="none" stroke-width="1"/><path d="M311.85964,178.92456c0,-3.08149 3.64456,-5.57955 8.14036,-5.57955c4.4958,0 8.14036,2.49804 8.14036,5.57955c0,3.08149 -3.64456,5.57954 -8.14036,5.57954c-4.4958,0 -8.14036,-2.49804 -8.14036,-5.57954z" fill="url(#color-2)" fill-rule="nonzero" stroke="none" stroke-width="1"/></g></g></svg>