<svg version="1.1" xmlns="http://www.w3.org/2000/svg" xmlns:xlink="http://www.w3.org/1999/xlink" width="31.58777" height="109.55475" viewBox="0,0,31.58777,109.55475"><defs><linearGradient x1="320.00002" y1="87.18911" x2="320.00002" y2="167.16485" gradientUnits="userSpaceOnUse" id="color-1"><stop offset="0" stop-color="#97b9ff"/><stop offset="1" stop-color="#3260ff"/></linearGradient><linearGradient x1="320.00002" y1="87.18912" x2="320.00002" y2="167.16485" gradientUnits="userSpaceOnUse" id="color-2"><stop offset="0" stop-color="#96bdff"/><stop offset="1" stop-color="#3361ff"/></linearGradient></defs><g transform="translate(-304.20612,-83.65007)"><g data-paper-data="{&quot;isPaintingLayer&quot;:true}" fill-rule="nonzero" stroke-linecap="butt" stroke-linejoin="miter" stroke-miterlimit="10" stroke-dasharray="" stroke-dashoffset="0" style="mix-blend-mode: normal"><path d="M333.80082,153.99642c0.20263,17.52893 -26.77842,17.57232 -26.98105,0.04339l-0.62055,-53.68231c-0.20263,-17.52893 26.77842,-17.57231 26.98105,-0.04338z" fill="url(#color-1)" stroke="url(#color-2)" stroke-width="3"/><text transform="translate(313.62273,186.95483) scale(0.5,0.5)" font-size="40" xml:space="preserve" fill="#3d88ff" fill-rule="nonzero" stroke="none" stroke-width="1" stroke-linecap="butt" stroke-linejoin="miter" stroke-miterlimit="10" stroke-dasharray="" stroke-dashoffset="0" font-family="Sans Serif" font-weight="normal" text-anchor="start" style="mix-blend-mode: normal"><tspan x="0" dy="0">R</tspan></text><text transform="translate(313.74902,129.60692) scale(0.5,0.5)" font-size="40" xml:space="preserve" fill="#3d88ff" fill-rule="nonzero" stroke="none" stroke-width="1" stroke-linecap="butt" stroke-linejoin="miter" stroke-miterlimit="10" stroke-dasharray="" stroke-dashoffset="0" font-family="Sans Serif" font-weight="normal" text-anchor="start" style="mix-blend-mode: normal"><tspan x="0" dy="0">4</tspan></text><path d="M321.72923,136.19565c0,1.00856 -0.6797,1.82616 -1.51815,1.82616c-0.83845,0 -1.51815,-0.8176 -1.51815,-1.82616c0,-1.00856 0.6797,-1.82616 1.51815,-1.82616c0.83845,0 1.51815,0.8176 1.51815,1.82616z" fill="#3d88ff" stroke="none" stroke-width="0"/><path d="M304.20613,192.83771v-109.18763h31.58777v109.18763z" data-paper-data="{&quot;index&quot;:null}" fill-opacity="0.01176" fill="#ffffff" stroke="none" stroke-width="0"/></g></g></svg>