<svg version="1.1" xmlns="http://www.w3.org/2000/svg" xmlns:xlink="http://www.w3.org/1999/xlink" width="24.87537" height="34.39789" viewBox="0,0,24.87537,34.39789"><defs><linearGradient x1="236.26264" y1="173.59385" x2="236.26264" y2="182.30084" gradientUnits="userSpaceOnUse" id="color-1"><stop offset="0" stop-color="#d6e5ff"/><stop offset="1" stop-color="#85c4ff"/></linearGradient><linearGradient x1="234.51538" y1="180.29924" x2="234.51538" y2="185.94727" gradientUnits="userSpaceOnUse" id="color-2"><stop offset="0" stop-color="#b3cfff"/><stop offset="1" stop-color="#0090ff"/></linearGradient><linearGradient x1="245.87036" y1="173.59385" x2="245.87036" y2="184.50261" gradientUnits="userSpaceOnUse" id="color-3"><stop offset="0" stop-color="#d6e5ff"/><stop offset="1" stop-color="#85c4ff"/></linearGradient><linearGradient x1="244.1231" y1="182.501" x2="244.1231" y2="188.14903" gradientUnits="userSpaceOnUse" id="color-4"><stop offset="0" stop-color="#b3daff"/><stop offset="1" stop-color="#0083ff"/></linearGradient><linearGradient x1="241.11695" y1="171.23328" x2="240.91597" y2="175.25383" gradientUnits="userSpaceOnUse" id="color-5"><stop offset="0" stop-color="#f0f9ff"/><stop offset="1" stop-color="#c3daff"/></linearGradient></defs><g transform="translate(-227.56236,-167.57687)"><g data-paper-data="{&quot;isPaintingLayer&quot;:true}" fill-rule="nonzero" stroke-linecap="butt" stroke-linejoin="miter" stroke-miterlimit="10" stroke-dasharray="" stroke-dashoffset="0" style="mix-blend-mode: normal"><text transform="translate(227.84853,200.08234) scale(0.49234,0.49234)" font-size="12" xml:space="preserve" fill="#ffffff" fill-rule="nonzero" stroke="none" stroke-width="1" stroke-linecap="butt" stroke-linejoin="miter" stroke-miterlimit="10" stroke-dasharray="" stroke-dashoffset="0" font-family="HarmonyOS_Sans_SC, &quot;HarmonyOS Sans SC&quot;" font-weight="400" text-anchor="start" style="mix-blend-mode: normal"><tspan x="0" dy="0">电子演奏</tspan></text><path d="M247.18773,175.70331c0,2.87645 0,7.01134 0,8.62934c0,1.72587 -0.96035,2.84049 -2.4009,2.84049c-2.97112,0 -7.89294,0 -9.57357,0c-1.50056,0 -2.4009,-1.04271 -2.4009,-2.80453c0,-0.0719 0,-8.70125 0,-8.70125c0,-1.76182 0.90034,-2.84049 2.37088,-2.84049c2.97112,0 7.92296,0 9.60358,0c1.44055,0 2.4009,1.11462 2.4009,2.87643z" fill="#e6faff" stroke="#e6faff" stroke-width="10.5"/><path d="M235.41195,182.30084v-8.707h1.70137v8.707z" fill="url(#color-1)" stroke="none" stroke-width="0"/><path d="M237.22173,183.12324c0,1.55965 -1.21168,2.824 -2.70635,2.824c-1.49468,0 -2.70634,-1.26435 -2.70634,-2.824c0,-1.55965 1.21167,-2.82401 2.70634,-2.82401c1.49468,0 2.70635,1.26436 2.70635,2.82401z" fill="url(#color-2)" stroke="none" stroke-width="2"/><path d="M245.01968,184.50261v-10.90877h1.70136v10.90877z" fill="url(#color-3)" stroke="none" stroke-width="0"/><path d="M246.82947,185.32501c0,1.55965 -1.21168,2.824 -2.70634,2.824c-1.49466,0 -2.70635,-1.26435 -2.70635,-2.824c0,-1.55965 1.21167,-2.82401 2.70635,-2.82401c1.49466,0 2.70634,1.26435 2.70634,2.82401z" fill="url(#color-4)" stroke="none" stroke-width="2"/><path d="M235.44584,174.88612l-0.07388,-2.90106l11.21513,-0.38405l0.07388,2.90106z" fill="url(#color-5)" stroke="none" stroke-width="0"/></g></g></svg>