<svg version="1.1" xmlns="http://www.w3.org/2000/svg" xmlns:xlink="http://www.w3.org/1999/xlink" width="21.25039" height="21.22859" viewBox="0,0,21.25039,21.22859"><defs><linearGradient x1="119.39584" y1="93.44322" x2="119.39584" y2="93.44571" gradientUnits="userSpaceOnUse" id="color-1"><stop offset="0" stop-color="#000000"/><stop offset="1" stop-color="#ffffff"/></linearGradient><linearGradient x1="240" y1="177.3125" x2="240" y2="182.6875" gradientUnits="userSpaceOnUse" id="color-2"><stop offset="0" stop-color="#ecf9ff"/><stop offset="1" stop-color="#35a7ff"/></linearGradient><linearGradient x1="240" y1="173.8125" x2="240" y2="186.1875" gradientUnits="userSpaceOnUse" id="color-3"><stop offset="0" stop-color="#c7efff"/><stop offset="1" stop-color="#67a7ff"/></linearGradient></defs><g transform="translate(-229.37482,-169.38573)"><g data-paper-data="{&quot;isPaintingLayer&quot;:true}" fill-rule="nonzero" stroke-linecap="butt" stroke-linejoin="miter" stroke-miterlimit="10" stroke-dasharray="" stroke-dashoffset="0" style="mix-blend-mode: normal"><path d="M245.37521,176.78683c0,2.1511 0,5.24331 0,6.45329c0,1.29066 -0.71819,2.1242 -1.79548,2.1242c-2.22189,0 -5.9026,0 -7.15943,0c-1.12217,0 -1.79548,-0.77977 -1.79548,-2.09731c0,-0.05378 0,-6.50708 0,-6.50708c0,-1.31754 0.6733,-2.1242 1.77302,-2.1242c2.22189,0 5.92505,0 7.18188,0c1.07729,0 1.79547,0.83355 1.79547,2.15109z" fill="#f7f7f7" stroke="#e6faff" stroke-width="10.5"/><path d="M238.79167,186.88891v0z" fill="url(#color-1)" stroke="none" stroke-width="0"/><path d="M237.3125,180c0,-1.48427 1.20323,-2.6875 2.6875,-2.6875c1.48427,0 2.6875,1.20323 2.6875,2.6875c0,1.48427 -1.20323,2.6875 -2.6875,2.6875c-1.48427,0 -2.6875,-1.20323 -2.6875,-2.6875z" fill="url(#color-2)" stroke="none" stroke-width="0"/><path d="M233.8125,180c0,-3.41726 2.77024,-6.1875 6.1875,-6.1875c3.41726,0 6.1875,2.77024 6.1875,6.1875c0,3.41726 -2.77024,6.1875 -6.1875,6.1875c-3.41726,0 -6.1875,-2.77024 -6.1875,-6.1875z" fill="none" stroke="url(#color-3)" stroke-width="2"/></g></g></svg>