<svg version="1.1" xmlns="http://www.w3.org/2000/svg" xmlns:xlink="http://www.w3.org/1999/xlink" width="178.66238" height="161.10288" viewBox="0,0,178.66238,161.10288"><g transform="translate(-180.66881,-49.61361)"><g data-paper-data="{&quot;isPaintingLayer&quot;:true}" stroke-linecap="butt" stroke-linejoin="miter" stroke-miterlimit="10" stroke-dasharray="" stroke-dashoffset="0" style="mix-blend-mode: normal"><path d="M211.38531,153.03349h117.22938c14.89319,0 26.9665,12.07332 26.9665,26.9665c0,14.89319 -12.07332,26.9665 -26.9665,26.9665h-117.22938c-14.89319,0 -26.9665,-12.07332 -26.9665,-26.9665c0,-14.89319 12.07332,-26.9665 26.9665,-26.9665z" fill="#2a65fa" fill-rule="evenodd" stroke="#2a65fa" stroke-width="7.5"/><text transform="translate(221.67457,70.86361) scale(0.5,0.5)" font-size="40" xml:space="preserve" fill="#ffffff" fill-rule="nonzero" stroke="none" stroke-width="1" stroke-linecap="butt" stroke-linejoin="miter" stroke-miterlimit="10" stroke-dasharray="" stroke-dashoffset="0" font-family="HarmonyOS_Sans_SC, &quot;HarmonyOS Sans SC&quot;" font-weight="normal" text-anchor="start" style="mix-blend-mode: normal"><tspan x="0" dy="0"> </tspan></text><path d="M244.55696,180.93462c-0.04618,0.41377 -0.11468,0.82474 -0.20519,1.23113c1.83892,2.15824 3.13083,3.98972 3.87575,5.49443l-2.16588,1.89232c-0.28819,-0.57764 -0.67942,-1.26921 -1.17367,-2.07469c-0.49426,-0.80548 -0.99218,-1.57302 -1.49376,-2.30261c-0.82091,1.88455 -2.13562,3.76924 -3.94411,5.65407l-2.23433,-2.02914c1.35276,-1.35271 2.3825,-2.63321 3.08922,-3.84152c0.71952,-1.24387 1.20987,-2.60681 1.44772,-4.02397h-4.1493v-2.66744h4.42286c0.076,-0.98769 0.114,-2.18082 0.114,-3.57937h-1.13994c-0.38805,0.98895 -0.86098,1.94244 -1.4135,2.84981l-2.34825,-1.29949c1.12459,-1.7477 2.03653,-4.00477 2.73581,-6.77119l2.55352,0.59275c-0.24322,0.88181 -0.43322,1.53538 -0.57001,1.96069h5.6997v2.66744h-2.69025c-0.00022,0.79038 -0.05343,1.98351 -0.15964,3.57937h3.07781v2.66744zM248.77471,190.09985v-18.74051h8.59506v18.76325h-2.75862v-1.93787h-3.10063v1.93771zM251.51051,174.02678v11.51332h3.10063v-11.51332zM271.2997,175.30353l0.41037,-1.29949h-5.44888v-2.14314h3.23745c-0.38006,-0.80537 -0.68404,-1.37533 -0.91194,-1.70987l2.32543,-0.88912c0.18237,0.30422 0.63835,1.17055 1.36794,2.59899h2.02906c0.66864,-1.1398 1.14741,-2.03653 1.43631,-2.69017l2.50821,0.77512c-0.33432,0.63838 -0.69928,1.27673 -1.09488,1.91506h3.57929v2.14314h-6.15563l-0.41037,1.29949h5.28973v10.96596h-12.24305v-10.96596zM263.3202,175.73673c-0.33415,-0.54722 -0.82814,-1.28059 -1.48195,-2.2001c-0.65381,-0.91951 -1.19337,-1.65285 -1.61868,-2.20002l2.32543,-1.52758c1.42849,1.83908 2.47724,3.283 3.14626,4.33176zM270.66132,187.56899c1.73206,0.09121 3.45714,0.13682 5.17524,0.13682c1.73288,0 3.45052,-0.04555 5.15292,-0.13666l-0.45634,2.5307c-1.71739,0.09116 -3.42729,0.13674 -5.12969,0.13674c-1.7024,0 -3.4123,-0.04558 -5.12969,-0.13674c-1.5806,-0.07617 -2.82313,-0.32316 -3.7276,-0.74097c-0.90447,-0.41782 -1.7822,-1.13597 -2.63321,-2.15447c-0.41037,0.45606 -1.02594,1.17802 -1.84669,2.16588l-0.91194,1.09431l-1.29949,-2.80426l2.69017,-2.91818v-5.12969h-2.25706v-2.69025h4.90176v7.84276c0.60807,1.00296 1.31481,1.7021 2.12024,2.09743c0.80543,0.39533 1.92255,0.63091 3.35137,0.70675zM269.93174,178.44972h6.81666v-1.16267h-6.81666zM276.74841,180.20522h-6.81666v1.25394h6.81666zM269.93174,183.14621v1.20839h6.81666v-1.20839zM284.04406,170.74361h18.74018v2.87262l-7.72818,5.06132v8.57241c-0.00027,0.80554 -0.1067,1.43631 -0.31927,1.89232c-0.21212,0.45512 -0.59212,0.81051 -1.06041,0.99171c-0.49354,0.20502 -1.17367,0.32283 -2.04038,0.35341l-0.70667,0.02282c-0.85326,-0.01026 -1.70546,-0.06354 -2.55335,-0.15964l-0.54744,-2.82699c0.951,0.14332 1.91092,0.21951 2.87262,0.228c0.53185,-0.00005 0.88149,-0.09887 1.04892,-0.29646c0.16743,-0.19758 0.25115,-0.61553 0.25115,-1.25386v-9.00551l5.95044,-3.57937h-13.90761v-2.87262z" fill="#ffffff" fill-rule="evenodd" stroke="none" stroke-width="1"/></g></g></svg>