<svg version="1.1" xmlns="http://www.w3.org/2000/svg" xmlns:xlink="http://www.w3.org/1999/xlink" width="21.25039" height="21.22859" viewBox="0,0,21.25039,21.22859"><defs><linearGradient x1="149.39586" y1="93.44323" x2="149.39586" y2="93.44572" gradientUnits="userSpaceOnUse" id="color-1"><stop offset="0" stop-color="#000000"/><stop offset="1" stop-color="#ffffff"/></linearGradient><linearGradient x1="266.57424" y1="185.74088" x2="266.57424" y2="180.97508" gradientUnits="userSpaceOnUse" id="color-2"><stop offset="0" stop-color="#44abfc"/><stop offset="1" stop-color="#40aaff"/></linearGradient><linearGradient x1="270" y1="183.88559" x2="270" y2="174.25889" gradientUnits="userSpaceOnUse" id="color-3"><stop offset="0" stop-color="#35a7ff"/><stop offset="1" stop-color="#dff5ff"/></linearGradient></defs><g transform="translate(-259.37484,-169.38573)"><g data-paper-data="{&quot;isPaintingLayer&quot;:true}" stroke-linecap="butt" stroke-linejoin="miter" stroke-miterlimit="10" stroke-dasharray="" stroke-dashoffset="0" style="mix-blend-mode: normal"><path d="M275.37523,176.78684c0,2.1511 0,5.24331 0,6.45329c0,1.29066 -0.71819,2.1242 -1.79548,2.1242c-2.22189,0 -5.9026,0 -7.15943,0c-1.12217,0 -1.79548,-0.77977 -1.79548,-2.09731c0,-0.05378 0,-6.50708 0,-6.50708c0,-1.31754 0.6733,-2.1242 1.77302,-2.1242c2.22189,0 5.92505,0 7.18188,0c1.07729,0 1.79547,0.83355 1.79547,2.15109z" fill="#f7f7f7" fill-rule="nonzero" stroke="#e6faff" stroke-width="10.5"/><path d="M268.79168,186.88892z" fill="url(#color-1)" fill-rule="nonzero" stroke="none" stroke-width="0"/><path d="M265.20842,185.6615c-0.47244,0.27051 -1.0259,-0.19408 -0.84136,-0.70623l1.29469,-3.59319c0.06484,-0.17996 0.21354,-0.31687 0.39823,-0.36666c0.18469,-0.04979 0.38205,-0.00618 0.52857,0.1168l2.01971,1.69532c0.14651,0.12298 0.22368,0.3098 0.20665,0.50033c-0.01703,0.19053 -0.12609,0.36071 -0.29209,0.45576z" fill="url(#color-2)" fill-rule="evenodd" stroke="none" stroke-width="1"/><path d="M262.97748,179.07224c0,-2.65834 3.14409,-4.81335 7.02252,-4.81335c3.87843,0 7.02252,2.15501 7.02252,4.81335c0,2.65834 -3.14409,4.81335 -7.02252,4.81335c-3.87843,0 -7.02252,-2.15501 -7.02252,-4.81335z" fill="url(#color-3)" fill-rule="nonzero" stroke="none" stroke-width="1"/></g></g></svg>