<svg version="1.1" xmlns="http://www.w3.org/2000/svg" xmlns:xlink="http://www.w3.org/1999/xlink" width="21.25038" height="21.2286" viewBox="0,0,21.25038,21.2286"><defs><linearGradient x1="240" y1="182.80703" x2="240" y2="187.22409" gradientUnits="userSpaceOnUse" id="color-1"><stop offset="0" stop-color="#e9f9ff"/><stop offset="1" stop-color="#16b3ff"/></linearGradient><linearGradient x1="240" y1="172.77593" x2="240" y2="180.28305" gradientUnits="userSpaceOnUse" id="color-2"><stop offset="0" stop-color="#effbff"/><stop offset="1" stop-color="#44c5ff"/></linearGradient></defs><g transform="translate(-229.37481,-169.3857)"><g data-paper-data="{&quot;isPaintingLayer&quot;:true}" fill-rule="nonzero" stroke-linecap="butt" stroke-linejoin="miter" stroke-miterlimit="10" stroke-dasharray="" stroke-dashoffset="0" style="mix-blend-mode: normal"><path d="M245.37519,176.7868c0,2.1511 0,5.24331 0,6.4533c0,1.29066 -0.71818,2.12421 -1.79547,2.12421c-2.2219,0 -5.9026,0 -7.15943,0c-1.12217,0 -1.79547,-0.77977 -1.79547,-2.09732c0,-0.05377 0,-6.50708 0,-6.50708c0,-1.31755 0.6733,-2.12421 1.77302,-2.12421c2.2219,0 5.92505,0 7.18187,0c1.07729,0 1.79547,0.83355 1.79547,2.15109z" fill="#f7f7f7" stroke="#e6faff" stroke-width="10.5"/><path d="M242.2624,185.01556c0,1.21974 -1.01291,2.20853 -2.2624,2.20853c-1.24949,0 -2.2624,-0.98879 -2.2624,-2.20853c0,-1.21974 1.01291,-2.20853 2.2624,-2.20853c1.24949,0 2.2624,0.98879 2.2624,2.20853z" fill="url(#color-1)" stroke="none" stroke-width="NaN"/><path d="M240.49213,174.28112c0,1.50519 0,3.66889 0,4.51556c0,0.90311 -0.06575,1.48637 -0.16439,1.48637c-0.20343,0 -0.54042,0 -0.65549,0c-0.10274,0 -0.16439,-0.54563 -0.16439,-1.46756c0,-0.03763 0,-4.55319 0,-4.55319c0,-0.92193 0.06164,-1.48637 0.16233,-1.48637c0.20343,0 0.54247,0 0.65754,0c0.09863,0 0.16439,0.58326 0.16439,1.50519z" fill="#61d9ff" stroke="url(#color-2)" stroke-width="3"/></g></g></svg>