<svg version="1.1" xmlns="http://www.w3.org/2000/svg" xmlns:xlink="http://www.w3.org/1999/xlink" width="21.25037" height="21.22861" viewBox="0,0,21.25037,21.22861"><defs><linearGradient x1="236.36425" y1="174.75903" x2="236.36425" y2="177.9597" gradientUnits="userSpaceOnUse" id="color-1"><stop offset="0" stop-color="#ffffff"/><stop offset="1" stop-color="#50cdff"/></linearGradient><linearGradient x1="236.36425" y1="174.75903" x2="236.36425" y2="177.9597" gradientUnits="userSpaceOnUse" id="color-2"><stop offset="0" stop-color="#cff2ff"/><stop offset="1" stop-color="#7cd3ff"/></linearGradient><linearGradient x1="243.57268" y1="174.74114" x2="243.57268" y2="177.97757" gradientUnits="userSpaceOnUse" id="color-3"><stop offset="0" stop-color="#eefcff"/><stop offset="1" stop-color="#a0dfff"/></linearGradient><linearGradient x1="236.36425" y1="181.87602" x2="236.36425" y2="185.11245" gradientUnits="userSpaceOnUse" id="color-4"><stop offset="0" stop-color="#ffffff"/><stop offset="1" stop-color="#ffffff" stop-opacity="0"/></linearGradient><linearGradient x1="236.36425" y1="181.87602" x2="236.36425" y2="185.11245" gradientUnits="userSpaceOnUse" id="color-5"><stop offset="0" stop-color="#7ddaff"/><stop offset="1" stop-color="#00aef2"/></linearGradient><linearGradient x1="243.63572" y1="182.0403" x2="243.63572" y2="185.24096" gradientUnits="userSpaceOnUse" id="color-6"><stop offset="0" stop-color="#50cdff" stop-opacity="0"/><stop offset="1" stop-color="#50cdff"/></linearGradient><linearGradient x1="243.63572" y1="182.0403" x2="243.63572" y2="185.24096" gradientUnits="userSpaceOnUse" id="color-7"><stop offset="0" stop-color="#c0edff"/><stop offset="1" stop-color="#4fc4ff"/></linearGradient></defs><g transform="translate(-229.37481,-169.3857)"><g data-paper-data="{&quot;isPaintingLayer&quot;:true}" fill-rule="nonzero" stroke-linecap="butt" stroke-linejoin="miter" stroke-miterlimit="10" stroke-dasharray="" stroke-dashoffset="0" style="mix-blend-mode: normal"><path d="M245.37519,176.7868c0,2.1511 0,5.24331 0,6.4533c0,1.29066 -0.71818,2.12421 -1.79547,2.12421c-2.2219,0 -5.9026,0 -7.15943,0c-1.12217,0 -1.79547,-0.77977 -1.79547,-2.09732c0,-0.05377 0,-6.50708 0,-6.50708c0,-1.31755 0.6733,-2.12421 1.77302,-2.12421c2.2219,0 5.92505,0 7.18187,0c1.07729,0 1.79547,0.83355 1.79547,2.15109z" fill="#f7f7f7" stroke="#e6faff" stroke-width="10.5"/><path d="M238.00179,175.40077c0,0.64174 0,1.56423 0,1.92522c0,0.38504 -0.21879,0.63372 -0.54698,0.63372c-0.67689,0 -1.7982,0 -2.18108,0c-0.34186,0 -0.54699,-0.23263 -0.54699,-0.6257c0,-0.01604 0,-1.94126 0,-1.94126c0,-0.39307 0.20512,-0.63371 0.54014,-0.63371c0.67689,0 1.80504,0 2.18792,0c0.32819,0 0.54698,0.24867 0.54698,0.64174z" fill="url(#color-1)" stroke="url(#color-2)" stroke-width="3.5"/><path d="M245.21021,175.40077c0,0.64174 0,1.56423 0,1.92522c0,0.38504 -0.21879,0.63372 -0.54699,0.63372c-0.67689,0 -1.79819,0 -2.18107,0c-0.34186,0 -0.54699,-0.23263 -0.54699,-0.6257c0,-0.01604 0,-1.94126 0,-1.94126c0,-0.39307 0.20512,-0.63371 0.54014,-0.63371c0.67689,0 1.80502,0 2.18791,0c0.32819,0 0.54699,0.24867 0.54699,0.64174z" fill="none" stroke="url(#color-3)" stroke-width="3.5"/><path d="M238.00179,182.53563c0,0.64174 0,1.56424 0,1.92523c0,0.38504 -0.21879,0.63371 -0.54698,0.63371c-0.67689,0 -1.7982,0 -2.18108,0c-0.34186,0 -0.54699,-0.23263 -0.54699,-0.6257c0,-0.01604 0,-1.94127 0,-1.94127c0,-0.39307 0.20512,-0.63371 0.54014,-0.63371c0.67689,0 1.80504,0 2.18792,0c0.32819,0 0.54698,0.24867 0.54698,0.64174z" fill="url(#color-4)" stroke="url(#color-5)" stroke-width="3.5"/><path d="M245.27326,182.68204c0,0.64174 0,1.56423 0,1.92522c0,0.38504 -0.21879,0.63371 -0.54699,0.63371c-0.67689,0 -1.7982,0 -2.18108,0c-0.34186,0 -0.54698,-0.23263 -0.54698,-0.62569c0,-0.01604 0,-1.94126 0,-1.94126c0,-0.39307 0.20511,-0.63371 0.54013,-0.63371c0.67689,0 1.80504,0 2.18792,0c0.32819,0 0.54699,0.24867 0.54699,0.64174z" fill="url(#color-6)" stroke="url(#color-7)" stroke-width="3.5"/></g></g></svg>