<svg version="1.1" xmlns="http://www.w3.org/2000/svg" xmlns:xlink="http://www.w3.org/1999/xlink" width="27.36792" height="22.29953" viewBox="0,0,27.36792,22.29953"><defs><linearGradient x1="269.05334" y1="177.26594" x2="270.94668" y2="182.73408" gradientUnits="userSpaceOnUse" id="color-1"><stop offset="0" stop-color="#dcf0ff"/><stop offset="1" stop-color="#ffffff" stop-opacity="0.32157"/></linearGradient><linearGradient x1="255.31959" y1="184.04953" x2="260.56959" y2="184.04953" gradientUnits="userSpaceOnUse" id="color-2"><stop offset="0" stop-color="#ffffff" stop-opacity="0"/><stop offset="1" stop-color="#ffffff" stop-opacity="0.32157"/></linearGradient><linearGradient x1="268.06251" y1="170.1875" x2="282.68751" y2="170.1875" gradientUnits="userSpaceOnUse" id="color-3"><stop offset="0" stop-color="#ffffff" stop-opacity="0"/><stop offset="1" stop-color="#ffffff" stop-opacity="0.32157"/></linearGradient></defs><g transform="translate(-255.31959,-168.9375)"><g data-paper-data="{&quot;isPaintingLayer&quot;:true}" fill-rule="nonzero" stroke-linecap="butt" stroke-linejoin="miter" stroke-miterlimit="10" stroke-dasharray="" stroke-dashoffset="0" style="mix-blend-mode: normal"><path d="M265.87501,180.00001c0,-2.27818 1.84682,-4.125 4.125,-4.125c2.27818,0 4.125,1.84682 4.125,4.125c0,2.27818 -1.84682,4.125 -4.125,4.125c-2.27818,0 -4.125,-1.84682 -4.125,-4.125z" fill="#ffffff" stroke="none" stroke-width="0"/><path d="M276.42652,176.22922c1.21165,0.62999 -0.68337,2.82894 -4.23263,4.91149c-3.54926,2.08255 -7.40874,3.26008 -8.62039,2.63009c-1.21165,-0.62999 0.68337,-2.82894 4.23263,-4.91149c3.54926,-2.08255 7.40874,-3.26008 8.62039,-2.63009z" fill="none" stroke="url(#color-1)" stroke-width="1.25"/><path d="M255.31959,191.23703v-14.375h5.25v14.375z" fill="none" stroke="url(#color-2)" stroke-width="0"/><path d="M268.06251,171.4375v-2.5h14.625v2.5z" fill="none" stroke="url(#color-3)" stroke-width="0"/></g></g></svg>