<svg version="1.1" xmlns="http://www.w3.org/2000/svg" xmlns:xlink="http://www.w3.org/1999/xlink" width="42.12608" height="27.0494" viewBox="0,0,42.12608,27.0494"><g transform="translate(-376.43697,-196.47532)"><g data-paper-data="{&quot;isPaintingLayer&quot;:true}" fill-rule="nonzero" stroke-linecap="butt" stroke-linejoin="miter" stroke-miterlimit="10" stroke-dasharray="" stroke-dashoffset="0" style="mix-blend-mode: normal"><g fill="#007dff" stroke="none" stroke-width="0"><path d="M381.65786,223.52471c-4.80364,0 -5.22488,-0.91342 -5.22086,-6.06229c0.00013,-0.21123 0.00489,-14.44384 0.0143,-14.65484c-0.1037,-4.75964 0.71402,-6.33224 5.63537,-6.33224h15.81869c4.7789,0.07466 5.63277,1.50546 5.65596,6.336c0.00337,0.21693 0.00183,14.87025 -0.00459,15.08711c0.04177,4.23778 -0.47801,5.55161 -5.65138,5.62628z"/><path d="M396.65786,223.5247c-4.80364,0 -5.22488,-0.91342 -5.22086,-6.06229c0.00013,-0.21123 0.00489,-14.44384 0.0143,-14.65484c-0.1037,-4.75964 0.71402,-6.33224 5.63537,-6.33224h15.81869c4.7789,0.07466 5.63277,1.50546 5.65596,6.336c0.00337,0.21693 0.00183,14.87025 -0.00459,15.08711c0.04177,4.23778 -0.47801,5.55161 -5.65138,5.62628z"/></g><text transform="translate(394.97157,214.46364) scale(0.99866,0.99866)" font-size="12" xml:space="preserve" fill="#ffffff" fill-rule="nonzero" stroke="none" stroke-width="1" stroke-linecap="butt" stroke-linejoin="miter" stroke-miterlimit="10" stroke-dasharray="" stroke-dashoffset="0" font-family="HarmonyOS_Sans_SC, &quot;HarmonyOS Sans SC&quot;" font-weight="400" text-anchor="start" style="mix-blend-mode: normal"><tspan x="0" dy="0">×</tspan></text><path d="M393.95283,214.34732c0,0 -0.08066,-0.10803 -3.70622,-4.21046c3.60265,-3.95086 3.70622,-4.07402 3.70622,-4.07402h10.17573v8.28447z" fill="none" stroke="#ffffff" stroke-width="1"/></g></g></svg>