<svg version="1.1" xmlns="http://www.w3.org/2000/svg" xmlns:xlink="http://www.w3.org/1999/xlink" width="102.40924" height="99.06806" viewBox="0,0,102.40924,99.06806"><g transform="translate(-218.79538,-130.46597)"><g data-paper-data="{&quot;isPaintingLayer&quot;:true}" fill-rule="nonzero" stroke-linecap="butt" stroke-linejoin="miter" stroke-miterlimit="10" stroke-dasharray="" stroke-dashoffset="0" style="mix-blend-mode: normal"><path d="M304.73554,180c0,18.55801 -15.55163,33.60224 -34.73552,33.60224c-19.18389,0 -34.73551,-15.04423 -34.73551,-33.60224c0,-18.55801 15.55163,-33.60224 34.73551,-33.60224c19.18389,0 34.73552,15.04423 34.73552,33.60224z" fill="#ffffff" stroke="none" stroke-width="0"/><path d="M261.58042,188.96106c0,0 -0.17702,-0.2371 -8.13406,-9.24072c7.90676,-8.67098 8.13406,-8.94128 8.13406,-8.94128h22.33275v18.18198z" fill="#0075ff" stroke="#0075ff" stroke-width="2.5"/><text transform="translate(263.81626,189.21635) scale(2.19177,2.19177)" font-size="12" xml:space="preserve" fill="#ffffff" fill-rule="nonzero" stroke="#000000" stroke-width="0" stroke-linecap="butt" stroke-linejoin="miter" stroke-miterlimit="10" stroke-dasharray="" stroke-dashoffset="0" font-family="HarmonyOS_Sans_SC, &quot;HarmonyOS Sans SC&quot;" font-weight="400" text-anchor="start" style="mix-blend-mode: normal"><tspan x="0" dy="0">×</tspan></text><path d="M321.20462,180c0,27.3569 -22.92509,49.53403 -51.20462,49.53403c-28.27953,0 -51.20462,-22.17713 -51.20462,-49.53403c0,-27.3569 22.9251,-49.53403 51.20462,-49.53403c28.27952,0 51.20462,22.17713 51.20462,49.53403z" fill-opacity="0.01176" fill="#ffffff" stroke="none" stroke-width="0"/></g></g></svg>