<svg version="1.1" xmlns="http://www.w3.org/2000/svg" xmlns:xlink="http://www.w3.org/1999/xlink" width="68.76902" height="56.22065" viewBox="0,0,68.76902,56.22065"><defs><linearGradient x1="253.22638" y1="208.10918" x2="253.22638" y2="184.77429" gradientUnits="userSpaceOnUse" id="color-1"><stop offset="0" stop-color="#44abfc"/><stop offset="1" stop-color="#40aaff"/></linearGradient><linearGradient x1="270" y1="199.02508" x2="270" y2="151.88967" gradientUnits="userSpaceOnUse" id="color-2"><stop offset="0" stop-color="#35a7ff"/><stop offset="1" stop-color="#dff5ff"/></linearGradient></defs><g transform="translate(-235.61549,-151.88967)"><g data-paper-data="{&quot;isPaintingLayer&quot;:true}" stroke="none" stroke-width="1" stroke-linecap="butt" stroke-linejoin="miter" stroke-miterlimit="10" stroke-dasharray="" stroke-dashoffset="0" style="mix-blend-mode: normal"><path d="M246.53889,207.72051c-2.31322,1.3245 -5.02314,-0.95028 -4.11957,-3.45793l6.33922,-17.59341c0.31748,-0.88114 1.04556,-1.5515 1.94986,-1.79528c0.9043,-0.24379 1.87064,-0.03026 2.58805,0.57189l9.88915,8.30083c0.71736,0.60215 1.09521,1.51688 1.01182,2.44978c-0.08338,0.9329 -0.61738,1.76615 -1.43017,2.23155z" fill="url(#color-1)" fill-rule="evenodd"/><path d="M235.61549,175.45738c0,-13.01608 15.39447,-23.5677 34.38451,-23.5677c18.99004,0 34.38451,10.55162 34.38451,23.5677c0,13.01608 -15.39447,23.5677 -34.38451,23.5677c-18.99004,0 -34.38451,-10.55162 -34.38451,-23.5677z" fill="url(#color-2)" fill-rule="nonzero"/></g></g></svg>