<svg version="1.1" xmlns="http://www.w3.org/2000/svg" xmlns:xlink="http://www.w3.org/1999/xlink" width="24.87537" height="34.3979" viewBox="0,0,24.87537,34.3979"><defs><linearGradient x1="240" y1="183.67176" x2="240" y2="188.82824" gradientUnits="userSpaceOnUse" id="color-1"><stop offset="0" stop-color="#e9f9ff"/><stop offset="1" stop-color="#16b3ff"/></linearGradient><linearGradient x1="240.00001" y1="170.71498" x2="240.00001" y2="180.75348" gradientUnits="userSpaceOnUse" id="color-2"><stop offset="0" stop-color="#effbff"/><stop offset="1" stop-color="#44c5ff"/></linearGradient></defs><g transform="translate(-227.56234,-167.57686)"><g data-paper-data="{&quot;isPaintingLayer&quot;:true}" fill-rule="nonzero" stroke-linecap="butt" stroke-linejoin="miter" stroke-miterlimit="10" stroke-dasharray="" stroke-dashoffset="0" style="mix-blend-mode: normal"><text transform="translate(227.84854,200.08233) scale(0.49234,0.49234)" font-size="12" xml:space="preserve" fill="#000000" fill-rule="nonzero" stroke="none" stroke-width="1" stroke-linecap="butt" stroke-linejoin="miter" stroke-miterlimit="10" stroke-dasharray="" stroke-dashoffset="0" font-family="HarmonyOS_Sans_SC, &quot;HarmonyOS Sans SC&quot;" font-weight="400" text-anchor="start" style="mix-blend-mode: normal"><tspan x="0" dy="0">项目说明</tspan></text><path d="M247.18771,175.7033c0,2.87645 0,7.01134 0,8.62934c0,1.72587 -0.96035,2.84049 -2.4009,2.84049c-2.97112,0 -7.89294,0 -9.57357,0c-1.50056,0 -2.4009,-1.04271 -2.4009,-2.80453c0,-0.0719 0,-8.70125 0,-8.70125c0,-1.76182 0.90034,-2.84049 2.37088,-2.84049c2.97112,0 7.92296,0 9.60358,0c1.44055,0 2.4009,1.11462 2.4009,2.87643z" fill="#f7f7f7" stroke="#e6faff" stroke-width="10.5"/><path d="M242.64113,186.25c0,1.42392 -1.18247,2.57824 -2.64113,2.57824c-1.45866,0 -2.64113,-1.15432 -2.64113,-2.57824c0,-1.42392 1.18247,-2.57824 2.64113,-2.57824c1.45866,0 2.64113,1.15432 2.64113,2.57824z" fill="url(#color-1)" stroke="none" stroke-width="NaN"/><path d="M240.65809,172.72771c0,2.01274 0,4.90603 0,6.0382c0,1.20764 -0.08792,1.98757 -0.21982,1.98757c-0.27203,0 -0.72265,0 -0.87652,0c-0.13738,0 -0.21982,-0.72962 -0.21982,-1.96242c0,-0.05032 0,-6.08852 0,-6.08852c0,-1.2328 0.08242,-1.98757 0.21707,-1.98757c0.27203,0 0.72539,0 0.87926,0c0.13189,0 0.21982,0.77993 0.21982,2.01274z" fill="#61d9ff" stroke="url(#color-2)" stroke-width="3"/></g></g></svg>