<svg version="1.1" xmlns="http://www.w3.org/2000/svg" xmlns:xlink="http://www.w3.org/1999/xlink" width="102.40924" height="99.06806" viewBox="0,0,102.40924,99.06806"><g transform="translate(-218.79538,-130.46597)"><g data-paper-data="{&quot;isPaintingLayer&quot;:true}" fill-rule="nonzero" stroke="none" stroke-linecap="butt" stroke-linejoin="miter" stroke-miterlimit="10" stroke-dasharray="" stroke-dashoffset="0" style="mix-blend-mode: normal"><path d="M304.73552,180c0,18.55801 -15.55163,33.60224 -34.73552,33.60224c-19.18389,0 -34.73551,-15.04423 -34.73551,-33.60224c0,-18.55801 15.55163,-33.60224 34.73551,-33.60224c19.18389,0 34.73552,15.04423 34.73552,33.60224z" fill="#ffffff" stroke-width="0"/><text transform="translate(260.22578,190.25268) scale(0.85439,0.85439)" font-size="40" xml:space="preserve" fill="#000000" fill-rule="nonzero" stroke="none" stroke-width="1" stroke-linecap="butt" stroke-linejoin="miter" stroke-miterlimit="10" stroke-dasharray="" stroke-dashoffset="0" font-family="Sans Serif" font-weight="normal" text-anchor="start" style="mix-blend-mode: normal"><tspan x="0" dy="0">9</tspan></text><path d="M321.20462,180c0,27.3569 -22.92509,49.53403 -51.20462,49.53403c-28.27953,0 -51.20462,-22.17713 -51.20462,-49.53403c0,-27.3569 22.9251,-49.53403 51.20462,-49.53403c28.27952,0 51.20462,22.17713 51.20462,49.53403z" fill-opacity="0.01176" fill="#ffffff" stroke-width="0"/></g></g></svg>