<svg version="1.1" xmlns="http://www.w3.org/2000/svg" xmlns:xlink="http://www.w3.org/1999/xlink" width="21.25039" height="21.22859" viewBox="0,0,21.25039,21.22859"><defs><linearGradient x1="236.58334" y1="174.97224" x2="236.58334" y2="182.22224" gradientUnits="userSpaceOnUse" id="color-1"><stop offset="0" stop-color="#d6e5ff"/><stop offset="1" stop-color="#85c4ff"/></linearGradient><linearGradient x1="235.12847" y1="180.55557" x2="235.12847" y2="185.25847" gradientUnits="userSpaceOnUse" id="color-2"><stop offset="0" stop-color="#b3cfff"/><stop offset="1" stop-color="#0090ff"/></linearGradient><linearGradient x1="119.39584" y1="93.44321" x2="119.39584" y2="93.4457" gradientUnits="userSpaceOnUse" id="color-3"><stop offset="0" stop-color="#000000"/><stop offset="1" stop-color="#ffffff"/></linearGradient><linearGradient x1="244.58334" y1="174.97224" x2="244.58334" y2="184.05557" gradientUnits="userSpaceOnUse" id="color-4"><stop offset="0" stop-color="#d6e5ff"/><stop offset="1" stop-color="#85c4ff"/></linearGradient><linearGradient x1="243.12847" y1="182.3889" x2="243.12847" y2="187.0918" gradientUnits="userSpaceOnUse" id="color-5"><stop offset="0" stop-color="#b3daff"/><stop offset="1" stop-color="#0083ff"/></linearGradient><linearGradient x1="240.62535" y1="173.00668" x2="240.45799" y2="176.35445" gradientUnits="userSpaceOnUse" id="color-6"><stop offset="0" stop-color="#f0f9ff"/><stop offset="1" stop-color="#c3daff"/></linearGradient></defs><g transform="translate(-229.37482,-169.38571)"><g data-paper-data="{&quot;isPaintingLayer&quot;:true}" fill-rule="nonzero" stroke-linecap="butt" stroke-linejoin="miter" stroke-miterlimit="10" stroke-dasharray="" stroke-dashoffset="0" style="mix-blend-mode: normal"><path d="M245.37521,176.78682c0,2.1511 0,5.24331 0,6.45329c0,1.29066 -0.71819,2.1242 -1.79548,2.1242c-2.22189,0 -5.9026,0 -7.15943,0c-1.12217,0 -1.79548,-0.77977 -1.79548,-2.09731c0,-0.05378 0,-6.50708 0,-6.50708c0,-1.31754 0.6733,-2.1242 1.77302,-2.1242c2.22189,0 5.92505,0 7.18188,0c1.07729,0 1.79547,0.83355 1.79547,2.15109z" fill="#f7f7f7" stroke="#e6faff" stroke-width="10.5"/><path d="M235.87501,182.22224v-7.25h1.41667v7.25z" fill="url(#color-1)" stroke="none" stroke-width="0"/><path d="M237.38195,182.90702c0,1.29867 -1.00892,2.35145 -2.25348,2.35145c-1.24456,0 -2.25347,-1.05278 -2.25347,-2.35145c0,-1.29867 1.00891,-2.35145 2.25347,-2.35145c1.24456,0 2.25348,1.05278 2.25348,2.35145z" fill="url(#color-2)" stroke="none" stroke-width="2"/><path d="M238.79167,186.8889v0v0v0z" fill="url(#color-3)" stroke="none" stroke-width="0"/><path d="M243.87501,184.05557v-9.08333h1.41667v9.08333z" fill="url(#color-4)" stroke="none" stroke-width="0"/><path d="M245.38195,184.74035c0,1.29867 -1.00892,2.35145 -2.25347,2.35145c-1.24455,0 -2.25348,-1.05278 -2.25348,-2.35145c0,-1.29867 1.00892,-2.35145 2.25348,-2.35145c1.24455,0 2.25347,1.05278 2.25347,2.35145z" fill="url(#color-5)" stroke="none" stroke-width="2"/><path d="M235.90322,176.04827l-0.06152,-2.41561l9.33843,-0.31979l0.06152,2.41561z" fill="url(#color-6)" stroke="none" stroke-width="0"/></g></g></svg>