<svg version="1.1" xmlns="http://www.w3.org/2000/svg" xmlns:xlink="http://www.w3.org/1999/xlink" width="178.66238" height="161.10288" viewBox="0,0,178.66238,161.10288"><g transform="translate(-180.66881,-49.61361)"><g data-paper-data="{&quot;isPaintingLayer&quot;:true}" stroke-linecap="butt" stroke-linejoin="miter" stroke-miterlimit="10" stroke-dasharray="" stroke-dashoffset="0" style="mix-blend-mode: normal"><path d="M211.38531,153.03349h117.22938c14.89319,0 26.9665,12.07332 26.9665,26.9665c0,14.89319 -12.07332,26.9665 -26.9665,26.9665h-117.22938c-14.89319,0 -26.9665,-12.07332 -26.9665,-26.9665c0,-14.89319 12.07332,-26.9665 26.9665,-26.9665z" fill="#2a65fa" fill-rule="evenodd" stroke="#2a65fa" stroke-width="7.5"/><text transform="translate(221.67457,70.86361) scale(0.5,0.5)" font-size="40" xml:space="preserve" fill="#ffffff" fill-rule="nonzero" stroke="none" stroke-width="1" stroke-linecap="butt" stroke-linejoin="miter" stroke-miterlimit="10" stroke-dasharray="" stroke-dashoffset="0" font-family="HarmonyOS_Sans_SC, &quot;HarmonyOS Sans SC&quot;" font-weight="normal" text-anchor="start" style="mix-blend-mode: normal"><tspan x="0" dy="0"> </tspan></text><path d="M268.57566,174.59847v13.72603c-0.00024,0.80919 -0.0828,1.43274 -0.2477,1.87063c-0.14225,0.41287 -0.45293,0.74604 -0.85486,0.91676c-0.40436,0.1734 -0.97819,0.2601 -1.7215,0.2601c-0.47175,-0.00045 -0.94315,-0.02525 -1.41234,-0.0743l-0.56979,-2.72549c0.33038,0.04971 0.74331,0.09101 1.23876,0.12389c0.36345,-0.0003 0.61537,-0.07463 0.75576,-0.22299c0.1404,-0.14836 0.21059,-0.43742 0.21059,-0.86717v-1.51099h-2.47771v4.80672h-2.5768v-4.80672h-2.50241c-0.11604,0.95212 -0.32773,1.89012 -0.63187,2.79979c-0.34537,0.96018 -0.78961,1.88187 -1.32555,2.7502l-2.52721,-1.48664c0.52021,-0.81397 0.96792,-1.67207 1.33795,-2.5644c0.31451,-0.82427 0.51847,-1.68657 0.60654,-2.5644c0.10739,-0.95779 0.16109,-2.24618 0.16109,-3.86516v-3.86516l-0.61947,0.56979l-1.23876,-2.6511c1.07188,-0.95815 2.03189,-2.03453 2.8617,-3.20858c0.83829,-1.17664 1.572,-2.42438 2.19272,-3.72896l2.87365,0.64391l-0.37159,0.76807l-0.24779,0.52028h5.62439v2.47806l-1.01586,1.06537l-0.81767,0.84246zM254.37814,189.36543h-6.14467v-6.93745c-0.33033,0.52882 -0.74328,1.12346 -1.23885,1.78393l-1.09016,-2.89889c0.7266,-1.05704 1.39557,-2.33719 2.00693,-3.84045c0.61796,-1.52418 1.13121,-3.08876 1.53615,-4.68283h-2.45291v-2.72549h8.22634v2.72549h-2.97364c-0.34957,1.44349 -0.77973,2.86626 -1.28845,4.26164h3.41927zM259.85383,172.88848c-0.4957,0.69377 -0.93344,1.26365 -1.31324,1.70963h3.12188l0.94156,-0.91676c0.26426,-0.26408 0.54505,-0.52837 0.84237,-0.79287zM258.59018,179.20691h2.32901v-1.98213h-2.32901v1.98177zM263.496,177.22478v1.98177h2.47771v-1.98213h-2.47771zM250.58728,186.46654h1.51179v-6.54106h-1.51179zM260.91965,183.66674v-2.03163h-2.32901v0.32209c-0.00024,0.7929 -0.0085,1.36275 -0.0248,1.70954zM265.97371,181.63511h-2.47771v2.03163h2.47815v-2.03163zM290.32966,173.48351h-15.13935v2.03172h-2.92333v-4.75722h8.89549l-0.644,-2.13082l3.59195,-0.34689c0.24797,0.69401 0.49593,1.51991 0.7439,2.47771h8.3497v4.75722h-2.87392v-2.03172zM284.58094,184.65834v3.34488c1.58651,0.09901 3.17243,0.14854 4.75775,0.1486c1.58532,0.00006 3.17094,-0.04947 4.75686,-0.1486l-0.61992,2.8493c-1.2883,0.0826 -2.81594,0.12389 -4.58292,0.12389c-1.78453,-0.00018 -3.32079,-0.04148 -4.60879,-0.12389c-1.75153,-0.09913 -3.26281,-0.44601 -4.53387,-1.04066c-1.2787,-0.59962 -2.3926,-1.50089 -3.24587,-2.62631c-0.67736,1.51955 -1.74287,3.03093 -3.19654,4.53413l-2.40332,-1.93254c0.95779,-0.99086 1.71347,-1.92412 2.26702,-2.79979c0.55312,-0.87516 0.97462,-1.82686 1.25098,-2.82459c0.28038,-1.00762 0.48701,-2.22995 0.61992,-3.66696l2.9979,0.2725c-0.13261,1.35472 -0.30594,2.46144 -0.52002,3.32017c0.52804,0.89197 1.11853,1.61446 1.77145,2.16748c0.68007,0.56873 1.46795,0.99431 2.31644,1.25125v-8.44889h-8.42427v-2.72549h19.12832v2.72549h-7.73068v2.89889h6.91274v2.7007h-6.91274z" fill="#ffffff" fill-rule="evenodd" stroke="none" stroke-width="1"/></g></g></svg>