<svg version="1.1" xmlns="http://www.w3.org/2000/svg" xmlns:xlink="http://www.w3.org/1999/xlink" width="393.72925" height="30.97946" viewBox="0,0,393.72925,30.97946"><g transform="translate(-123.13538,-164.51027)"><g data-paper-data="{&quot;isPaintingLayer&quot;:true}" fill="#1a1a1a" fill-rule="nonzero" stroke="#1a1a1a" stroke-width="4" stroke-linecap="butt" stroke-linejoin="miter" stroke-miterlimit="10" stroke-dasharray="" stroke-dashoffset="0" style="mix-blend-mode: normal"><path d="M253.76447,193.48973c-22.06501,0 -22.06501,-26.97945 0,-26.97945h67.57408c22.06501,0 22.06501,26.97945 0,26.97945z"/><path d="M198.63856,193.48973c-20.08711,0 -20.08711,-26.97945 0,-26.97945h61.51675c20.08711,0 20.08711,26.97945 0,26.97945z"/><path d="M324.46246,193.48972c-20.08711,0 -20.08711,-26.97945 0,-26.97945h61.51675c20.08711,0 20.08711,26.97945 0,26.97945z"/><path d="M384.72096,193.48973c-20.08711,0 -20.08711,-26.97945 0,-26.97945h61.51675c20.08711,0 20.08711,26.97945 0,26.97945z"/><path d="M140.20071,193.48973c-20.08711,0 -20.08711,-26.97945 0,-26.97945h61.51675c20.08711,0 20.08711,26.97945 0,26.97945z"/><path d="M438.28254,193.48973c-20.08711,0 -20.08711,-26.97945 0,-26.97945h61.51675c20.08711,0 20.08711,26.97945 0,26.97945z"/></g></g></svg>